<svg xmlns="http://www.w3.org/2000/svg" viewBox="0 0 86 25">
  <defs>
    <style>
      .a {
        fill: #000014;
      }

      .b {
        fill: #00ffc8;
      }
    </style>
  </defs>
  <title>Logo</title>
  <path class="a" d="M2,1.17H17.9V5.09H6.63v5.13h9.88v3.87H6.63v9.35H2V1.17Z"/>
  <path class="a" d="M34.34,21.42Q32.25,24,28,24t-6.34-2.58a9.54,9.54,0,0,1-2.09-6.21A9.61,9.61,0,0,1,21.66,9Q23.74,6.42,28,6.42T34.34,9a9.61,9.61,0,0,1,2.09,6.18A9.54,9.54,0,0,1,34.34,21.42ZM30.89,19a6.25,6.25,0,0,0,1-3.82,6.22,6.22,0,0,0-1-3.82A3.43,3.43,0,0,0,28,10.06a3.45,3.45,0,0,0-2.91,1.34,6.18,6.18,0,0,0-1,3.82,6.21,6.21,0,0,0,1,3.82A3.44,3.44,0,0,0,28,20.38,3.42,3.42,0,0,0,30.89,19Z"/>
  <path class="a" d="M43.91,23.44H39.6V1.14h4.31v22.3Z"/>
  <path class="a" d="M52.55,5H48.18V1h4.37V5Zm-4.37,2h4.37V23.44H48.18V6.95Z"/>
  <path class="a" d="M70.49,21.42Q68.4,24,64.15,24t-6.34-2.58a9.54,9.54,0,0,1-2.09-6.21A9.61,9.61,0,0,1,57.81,9q2.09-2.62,6.34-2.62T70.49,9a9.61,9.61,0,0,1,2.09,6.18A9.54,9.54,0,0,1,70.49,21.42ZM67,19a6.25,6.25,0,0,0,1-3.82,6.22,6.22,0,0,0-1-3.82,3.83,3.83,0,0,0-5.82,0,6.18,6.18,0,0,0-1,3.82,6.21,6.21,0,0,0,1,3.82A3.82,3.82,0,0,0,67,19Z"/>
  <path class="b" d="M80,1.35A4.7,4.7,0,0,1,83.4,2.79a4.7,4.7,0,0,1,1.45,3.44A4.7,4.7,0,0,1,83.4,9.68a4.82,4.82,0,0,1-6.88,0,4.7,4.7,0,0,1-1.45-3.44,4.7,4.7,0,0,1,1.45-3.44A4.7,4.7,0,0,1,80,1.35ZM77.51,6.24a2.45,2.45,0,1,0,4.9,0A2.45,2.45,0,1,0,77.51,6.24Z"/>
</svg>
